HIERARCHY
ROOT SpineBase
{
  OFFSET 0.000000 0.000000 0.000000
  CHANNELS 6 Xposition Yposition Zposition Zrotation Xrotation Yrotation
  JOINT SpineMid
  {
    OFFSET -0.000000 33.143019 -0.000000
    CHANNELS 3 Zrotation Xrotation Yrotation
    JOINT SpineShoulder
    {
      OFFSET 0.174195 24.568031 -0.838594
      CHANNELS 3 Zrotation Xrotation Yrotation
      JOINT Neck
      {
        OFFSET 0.117178 8.117222 -0.637299
        CHANNELS 3 Zrotation Xrotation Yrotation
        JOINT Head
        {
          OFFSET 5.551842 12.813282 3.869416
          CHANNELS 3 Zrotation Xrotation Yrotation
          End Site
          {
            OFFSET 0 0 0
          }
        }
      }
      JOINT ShoulderLeft
      {
        OFFSET -9.026703 -3.174230 -11.981280
        CHANNELS 3 Zrotation Xrotation Yrotation
        JOINT ElbowLeft
        {
          OFFSET -5.693800 -20.501872 -7.188203
          CHANNELS 3 Zrotation Xrotation Yrotation
          JOINT WristLeft
          {
            OFFSET 17.790025 -13.328792 0.622997
            CHANNELS 3 Zrotation Xrotation Yrotation
            JOINT HandLeft
            {
              OFFSET 7.029890 -4.235579 4.390414
              CHANNELS 3 Zrotation Xrotation Yrotation
              JOINT HandTipLeft
              {
                OFFSET 8.969079 -3.158036 -3.967186
                CHANNELS 3 Zrotation Xrotation Yrotation
                End Site
                {
                  OFFSET 0 0 0
                }
              }
              JOINT ThumbLeft
              {
                OFFSET 0.498897 1.657291 -5.223693
                CHANNELS 3 Zrotation Xrotation Yrotation
                End Site
                {
                  OFFSET 0 0 0
                }
              }
            }
          }
        }
      }
      JOINT ShoulderRight
      {
        OFFSET 8.935901 -9.009232 17.958826
        CHANNELS 3 Zrotation Xrotation Yrotation
        JOINT ElbowRight
        {
          OFFSET -0.170555 -19.307036 2.128428
          CHANNELS 3 Zrotation Xrotation Yrotation
          JOINT WristRight
          {
            OFFSET -10.458232 19.175188 -16.849326
            CHANNELS 3 Zrotation Xrotation Yrotation
            JOINT HandRight
            {
              OFFSET -0.119173 9.427133 -10.978180
              CHANNELS 3 Zrotation Xrotation Yrotation
              JOINT HandTipRight
              {
                OFFSET -6.818951 4.648100 -2.735975
                CHANNELS 3 Zrotation Xrotation Yrotation
                End Site
                {
                  OFFSET 0 0 0
                }
              }
              JOINT ThumbRight
              {
                OFFSET 5.171366 2.414667 3.185267
                CHANNELS 3 Zrotation Xrotation Yrotation
                End Site
                {
                  OFFSET 0 0 0
                }
              }
            }
          }
        }
      }
    }
  }
  JOINT HipLeft
  {
    OFFSET -3.195656 1.834172 -8.915306
    CHANNELS 3 Zrotation Xrotation Yrotation
    JOINT KneeLeft
    {
      OFFSET -7.367832 -39.003332 -7.983859
      CHANNELS 3 Zrotation Xrotation Yrotation
      JOINT AnkleLeft
      {
        OFFSET -7.779402 -37.009192 1.416581
        CHANNELS 3 Zrotation Xrotation Yrotation
        JOINT FootLeft
        {
          OFFSET 10.020611 -4.100585 -9.216595
          CHANNELS 3 Zrotation Xrotation Yrotation
          End Site
          {
            OFFSET 0 0 0
          }
        }
      }
    }
  }
  JOINT HipRight
  {
    OFFSET 4.407788 -0.314365 1.166723
    CHANNELS 3 Zrotation Xrotation Yrotation
    JOINT KneeRight
    {
      OFFSET 0.553868 -37.935078 -1.150432
      CHANNELS 3 Zrotation Xrotation Yrotation
      JOINT AnkleRight
      {
        OFFSET -13.398706 -36.033432 9.113778
        CHANNELS 3 Zrotation Xrotation Yrotation
        JOINT FootRight
        {
          OFFSET 4.098616 -8.368156 -4.032938
          CHANNELS 3 Zrotation Xrotation Yrotation
          End Site
          {
            OFFSET 0 0 0
          }
        }
      }
    }
  }
}
MOTION
Frames: 5
Frame Time: 0.033333
-55.610930 84.106200 361.173585 0.000000 -0.000000 -52.977928 -0.000000 0.000000 52.977928 -0.000000 0.000000 0.000000 -0.000000 0.000000 0.000000 0.000000 0.000000 0.000000 -0.000000 0.000000 0.000000 -0.000000 0.000000 0.000000 -0.000000 0.000000 0.000000 -0.000000 0.000000 0.000000 0.000000 0.000000 0.000000 0.000000 0.000000 0.000000 -0.000000 0.000000 0.000000 -0.000000 0.000000 0.000000 -0.000000 0.000000 0.000000 -0.000000 0.000000 0.000000 0.000000 0.000000 0.000000 0.000000 0.000000 0.000000 -0.000000 0.000000 52.977928 -0.000000 0.000000 0.000000 -0.000000 0.000000 0.000000 0.000000 0.000000 0.000000 -0.000000 0.000000 52.977928 -0.000000 0.000000 0.000000 -0.000000 0.000000 0.000000 0.000000 0.000000 0.000000
-55.607882 84.094807 361.167353 -0.010389 0.006349 -53.032103 0.011321 0.004482 53.032103 -0.000000 0.000000 0.000000 -0.000000 0.000000 0.000000 0.000000 0.000000 0.000000 -0.000000 0.000000 0.000000 0.575366 -0.602168 -0.768458 -0.593960 1.362778 2.058901 -0.017076 -0.768295 -1.284328 0.000000 0.000000 0.000000 0.000000 0.000000 0.000000 -0.000000 0.000000 0.000000 -0.000000 0.000000 0.000000 -0.000000 0.000000 0.000000 -0.000000 0.000000 0.000000 0.000000 0.000000 0.000000 0.000000 0.000000 0.000000 0.011321 0.004482 53.032103 -0.000000 0.000000 0.000000 -0.000000 0.000000 0.000000 0.000000 0.000000 0.000000 0.011321 0.004482 53.032103 -0.000000 0.000000 0.000000 0.564347 -0.669594 -0.596883 0.000000 0.000000 0.000000
-55.605340 84.084916 361.161722 -0.019416 0.004427 -53.083132 0.015202 0.012864 53.083131 -0.000000 0.000000 0.000000 -0.000000 0.000000 0.000000 0.000000 0.000000 0.000000 -0.000000 0.000000 0.000000 1.023438 -1.042070 -1.317428 -1.090749 2.484874 3.796012 -1.189532 -1.840743 -2.282068 0.000000 0.000000 0.000000 0.000000 0.000000 0.000000 -0.000000 0.000000 0.000000 -0.000000 0.000000 0.000000 -0.000000 0.000000 0.000000 0.686859 -0.622974 -0.499898 0.000000 0.000000 0.000000 0.000000 0.000000 0.000000 0.015202 0.012864 53.083131 -0.000000 0.000000 0.000000 -0.000000 0.000000 0.000000 0.000000 0.000000 0.000000 0.015202 0.012864 53.083131 -0.000000 0.000000 0.000000 1.007848 -1.190105 -1.058893 0.000000 0.000000 0.000000
-55.603304 84.076529 361.156691 -0.027079 -0.005765 -53.131073 0.011635 0.025123 53.131069 -0.000000 0.000000 0.000000 -0.000000 0.000000 0.000000 0.000000 0.000000 0.000000 -0.000000 0.000000 0.000000 1.366637 -1.337258 -1.677359 -1.485917 3.337857 5.147124 -1.599353 -2.506543 -3.222735 0.000000 0.000000 0.000000 0.000000 0.000000 0.000000 -0.000000 0.000000 0.000000 -0.000000 0.000000 0.000000 -0.616231 -0.083034 -0.718556 1.520093 -0.763577 -0.009040 0.000000 0.000000 0.000000 0.000000 0.000000 0.000000 0.011635 0.025123 53.131069 -0.000000 0.000000 0.000000 -0.000000 0.000000 0.000000 0.000000 0.000000 0.000000 0.011635 0.025123 53.131069 -0.000000 0.000000 0.000000 1.331256 -1.554923 -1.386285 0.000000 0.000000 0.000000
-55.601774 84.069643 361.152262 -0.033380 -0.024226 -53.175979 0.000614 0.041240 53.175972 -0.000000 0.000000 0.000000 -0.000000 0.000000 0.000000 0.000000 0.000000 0.000000 -0.000000 0.000000 0.000000 1.620197 -1.499853 -1.868461 -1.770757 3.884779 6.037155 -1.846346 -2.941984 -3.899975 0.000000 0.000000 0.000000 0.000000 0.000000 0.000000 -0.000000 0.000000 0.000000 -0.000000 0.000000 0.000000 -0.876711 -0.199455 -1.023022 1.907916 -0.831223 0.079212 0.000000 0.000000 0.000000 0.000000 0.000000 0.000000 0.000614 0.041240 53.175972 -0.000000 0.000000 0.000000 -0.000000 0.000000 0.000000 0.000000 0.000000 0.000000 0.000614 0.041240 53.175972 -0.000000 0.000000 0.000000 1.535235 -1.759530 -1.579444 0.000000 0.000000 0.000000
